<?xml version="1.0" encoding="UTF-8" standalone="no"?>
<svg
   xmlns:dc="http://purl.org/dc/elements/1.1/"
   xmlns:cc="http://creativecommons.org/ns#"
   xmlns:rdf="http://www.w3.org/1999/02/22-rdf-syntax-ns#"
   xmlns:svg="http://www.w3.org/2000/svg"
   xmlns="http://www.w3.org/2000/svg"
   xmlns:sodipodi="http://sodipodi.sourceforge.net/DTD/sodipodi-0.dtd"
   xmlns:inkscape="http://www.inkscape.org/namespaces/inkscape"
   viewBox="0 0 512 640"
   x="0px"
   y="0px"
   version="1.1"
   id="svg16"
   sodipodi:docname="bulb-rolling eyes.svg"
   inkscape:version="1.0.1 (3bc2e813f5, 2020-09-07)">
  <metadata
     id="metadata22">
    <rdf:RDF>
      <cc:Work
         rdf:about="">
        <dc:format>image/svg+xml</dc:format>
        <dc:type
           rdf:resource="http://purl.org/dc/dcmitype/StillImage" />
        <dc:title>Rolling Eyes-Emoji-Emotion-Face-Expression-Feeling</dc:title>
      </cc:Work>
    </rdf:RDF>
  </metadata>
  <defs
     id="defs20" />
  <sodipodi:namedview
     pagecolor="#ffffff"
     bordercolor="#666666"
     borderopacity="1"
     objecttolerance="10"
     gridtolerance="10"
     guidetolerance="10"
     inkscape:pageopacity="0"
     inkscape:pageshadow="2"
     inkscape:window-width="1920"
     inkscape:window-height="1001"
     id="namedview18"
     showgrid="false"
     inkscape:zoom="1.296875"
     inkscape:cx="256"
     inkscape:cy="320"
     inkscape:window-x="-9"
     inkscape:window-y="-9"
     inkscape:window-maximized="1"
     inkscape:current-layer="svg16"
     inkscape:document-rotation="0" />
  <title
     id="title2">Rolling Eyes-Emoji-Emotion-Face-Expression-Feeling</title>
  <path
     d="M389.75,56.71A187.21,187.21,0,0,0,257.61,1c-50.34-.43-97.9,19.07-134,54.89s-56,83.22-56,133.51A188.71,188.71,0,0,0,148,343.78a45.51,45.51,0,0,1,19.35,37.27v57.67a34.78,34.78,0,0,0,30.77,34.5,63.24,63.24,0,0,0,115.78,0,34.78,34.78,0,0,0,30.77-34.5V381.06h0a46.09,46.09,0,0,1,19.73-37.54,188.42,188.42,0,0,0,25.36-286.8ZM256,491a43,43,0,0,1-34.82-17.55h69.64A43,43,0,0,1,256,491Zm68.66-52.28a14.75,14.75,0,0,1-14.74,14.73H202.08a14.75,14.75,0,0,1-14.74-14.73V391.05H324.66Zm28.21-111.56a66.38,66.38,0,0,0-27.43,43.89H186.58a65.52,65.52,0,0,0-27.11-43.65,168.7,168.7,0,0,1-71.87-138c0-44.91,17.78-87.28,50.07-119.31S212.47,20.63,257.44,21a168.4,168.4,0,0,1,95.43,306.15Z"
     id="path4" />
  <path
     d="M278.35,273.75h-44.7a10,10,0,1,0,0,20h44.7a10,10,0,0,0,0-20Z"
     id="path6" />
  <path
     d="M181.92,190.49c-.31,0-.62,0-.93,0s-.49,0-.73,0a40.26,40.26,0,1,0,1.66,0Zm-1,60.42a20.2,20.2,0,0,1-15.83-32.77,18.39,18.39,0,0,0,31.76.15,20.18,20.18,0,0,1-15.93,32.62Z"
     id="path8" />
  <path
     d="M332.14,190.49c-.31,0-.61,0-.93,0l-.73,0a40.26,40.26,0,1,0,1.66,0Zm-1,60.42a20.19,20.19,0,0,1-15.82-32.77,18.39,18.39,0,0,0,31.76.15,20.19,20.19,0,0,1-15.94,32.62Z"
     id="path10" />
</svg>
