<?xml version="1.0" encoding="UTF-8" standalone="no"?>
<svg
   xmlns:dc="http://purl.org/dc/elements/1.1/"
   xmlns:cc="http://creativecommons.org/ns#"
   xmlns:rdf="http://www.w3.org/1999/02/22-rdf-syntax-ns#"
   xmlns:svg="http://www.w3.org/2000/svg"
   xmlns="http://www.w3.org/2000/svg"
   xmlns:sodipodi="http://sodipodi.sourceforge.net/DTD/sodipodi-0.dtd"
   xmlns:inkscape="http://www.inkscape.org/namespaces/inkscape"
   viewBox="0 0 64 80"
   x="0px"
   y="0px"
   version="1.1"
   id="svg250"
   sodipodi:docname="noun_Love_2195485.svg"
   inkscape:version="1.0.1 (3bc2e813f5, 2020-09-07)">
  <metadata
     id="metadata256">
    <rdf:RDF>
      <cc:Work
         rdf:about="">
        <dc:format>image/svg+xml</dc:format>
        <dc:type
           rdf:resource="http://purl.org/dc/dcmitype/StillImage" />
      </cc:Work>
    </rdf:RDF>
  </metadata>
  <defs
     id="defs254" />
  <sodipodi:namedview
     pagecolor="#ffffff"
     bordercolor="#666666"
     borderopacity="1"
     objecttolerance="10"
     gridtolerance="10"
     guidetolerance="10"
     inkscape:pageopacity="0"
     inkscape:pageshadow="2"
     inkscape:window-width="1920"
     inkscape:window-height="1016"
     id="namedview252"
     showgrid="false"
     inkscape:zoom="10.65"
     inkscape:cx="32"
     inkscape:cy="36.338028"
     inkscape:window-x="0"
     inkscape:window-y="27"
     inkscape:window-maximized="1"
     inkscape:current-layer="svg250" />
  <g
     id="g244">
    <path
       d="M39,25a3,3,0,0,0-3,3v3H50V28a3,3,0,0,0-3-3Z"
       id="path228" />
    <path
       d="M17,25a3,3,0,0,0-3,3v3H28V28a3,3,0,0,0-3-3Z"
       id="path230" />
    <path
       d="M12,31V28a5.006,5.006,0,0,1,5-5h8a5.006,5.006,0,0,1,5,5v3h4V28a5.006,5.006,0,0,1,5-5h8a5.006,5.006,0,0,1,5,5v3h1a6.952,6.952,0,0,1,3,.685V19a9.01,9.01,0,0,0-9-9H17a9.01,9.01,0,0,0-9,9V31.685A6.952,6.952,0,0,1,11,31ZM28.829,12a3.8,3.8,0,0,1,2.706,1.121l.465.465.464-.465a3.828,3.828,0,1,1,5.414,5.414L32,24.414l-5.878-5.879A3.828,3.828,0,0,1,28.829,12Z"
       id="path232" />
    <rect
       x="56"
       y="50"
       width="2"
       height="4"
       id="rect234" />
    <path
       d="M58,38a5.006,5.006,0,0,0-5-5H11a5.006,5.006,0,0,0-5,5v4H58Z"
       id="path236" />
    <polygon
       points="59 44 5 44 4 44 4 48 5 48 10 48 54 48 59 48 60 48 60 44 59 44"
       id="polygon238" />
    <path
       d="M32,21.586l4.464-4.465A1.828,1.828,0,0,0,35.171,14a1.819,1.819,0,0,0-1.293.535L32,16.414l-1.878-1.879A1.829,1.829,0,0,0,27,15.828a1.842,1.842,0,0,0,.535,1.293Z"
       id="path240" />
    <rect
       x="6"
       y="50"
       width="2"
       height="4"
       id="rect242" />
  </g>
</svg>
