<?xml version="1.0" encoding="UTF-8" standalone="no"?>
<svg
   xmlns:dc="http://purl.org/dc/elements/1.1/"
   xmlns:cc="http://creativecommons.org/ns#"
   xmlns:rdf="http://www.w3.org/1999/02/22-rdf-syntax-ns#"
   xmlns:svg="http://www.w3.org/2000/svg"
   xmlns="http://www.w3.org/2000/svg"
   xmlns:sodipodi="http://sodipodi.sourceforge.net/DTD/sodipodi-0.dtd"
   xmlns:inkscape="http://www.inkscape.org/namespaces/inkscape"
   version="1.1"
   x="0px"
   y="0px"
   viewBox="0 0 70 87.5"
   enable-background="new 0 0 70 70"
   xml:space="preserve"
   id="svg220"
   sodipodi:docname="noun_Couch_3243381.svg"
   inkscape:version="1.0.1 (3bc2e813f5, 2020-09-07)"><metadata
     id="metadata226"><rdf:RDF><cc:Work
         rdf:about=""><dc:format>image/svg+xml</dc:format><dc:type
           rdf:resource="http://purl.org/dc/dcmitype/StillImage" /></cc:Work></rdf:RDF></metadata><defs
     id="defs224" /><sodipodi:namedview
     pagecolor="#ffffff"
     bordercolor="#666666"
     borderopacity="1"
     objecttolerance="10"
     gridtolerance="10"
     guidetolerance="10"
     inkscape:pageopacity="0"
     inkscape:pageshadow="2"
     inkscape:window-width="1920"
     inkscape:window-height="1016"
     id="namedview222"
     showgrid="false"
     inkscape:zoom="9.7371429"
     inkscape:cx="35"
     inkscape:cy="27.318075"
     inkscape:window-x="0"
     inkscape:window-y="27"
     inkscape:window-maximized="1"
     inkscape:current-layer="svg220" /><g
     id="g214"><g
       id="g204"><path
         d="M60.7102,50.1341l-0.6187,5.056c-0.064,0.5333-0.5227,0.9387-1.056,0.9387h-1.0667c-0.544,0-0.992-0.4053-1.056-0.9387    l-0.6187-5.056H60.7102z"
         id="path200" /><path
         d="M13.7024,50.1341l-0.608,5.056c-0.064,0.5333-0.5227,0.9387-1.0667,0.9387h-1.056c-0.544,0-1.0027-0.4053-1.0667-0.9387    l-0.608-5.056H13.7024z"
         id="path202" /></g><g
       id="g212"><path
         d="M66.9767,28.5619c-0.3035-3.408-5.8356-4.1014-7.1692-0.9469c-1.0069,2.3833-0.895,5.4106,0.0018,7.6901    c0.8086,0.812,1.3097,1.9305,1.3097,3.164v4.2073c0,0.5896-0.4776,1.0667-1.0667,1.0667H10.0265    c-0.5891,0-1.0667-0.4771-1.0667-1.0667v-4.2073c0-1.0841,0.4022-2.0665,1.0448-2.8431c0.8404-2.1615,1.3195-4.6069,0.4276-7.3548    c-0.7493-2.3085-3.3-3.3268-5.3771-2.3427c-2.6483,1.2508-2.9699,5.4606,0.4141,6.5937c0.8771,0.2948,1.4656,1.1083,1.4656,2.025    L6.9317,46.1556c0,0.4917,0.1927,0.9552,0.5437,1.3062c0.351,0.35,0.8146,0.5437,1.3052,0.5437h52.4414    c1.0135,0,1.8385-0.825,1.8385-1.8385c0.4464-10.0956-1.084-12.8107,1.4713-13.6635    C65.7715,32.0931,67.2002,31.0765,66.9767,28.5619z"
         id="path206" /><path
         d="M12.1719,26.9536c0.9484,2.0578,1.0627,4.9516,0.5818,7.0981c0.2276-0.0357,0.4561-0.0701,0.6936-0.0701h43.1842    c0.2039,0,0.3987,0.0337,0.5955,0.0602c-0.0025-0.0131-0.0066-0.0242-0.009-0.0373c-0.6167-3.2875-0.0005-5.7416,0.625-7.2208    c0.0785-0.1854,0.1738-0.3604,0.2727-0.5329c-0.2608-2.4131,0.8736-4.9534,1.9237-6.7056    c0.5802-0.9698,0.7719-2.0292,0.5385-2.9812c-0.6333-2.5864-2.8703-2.6896-3.1234-2.6927H13.0869    c-2.2448,0.1031-3.5719,0.9604-4.0073,2.6208c-0.2786,1.0625-0.0401,2.25,0.6385,3.1771    C11.5529,22.1726,12.0922,26.2611,12.1719,26.9536z M52.9653,17.3182c0.5653,0,1.024,0.4587,1.024,1.0346    c0,0.5654-0.4587,1.024-1.024,1.024c-0.5654,0-1.024-0.4587-1.024-1.024C51.9413,17.7769,52.4,17.3182,52.9653,17.3182z     M52.9653,27.9741c0.5653,0,1.024,0.4587,1.024,1.0347c0,0.5653-0.4587,1.024-1.024,1.024c-0.5654,0-1.024-0.4587-1.024-1.024    C51.9413,28.4328,52.4,27.9741,52.9653,27.9741z M49.5307,22.8542c0.576,0,1.0347,0.4587,1.0347,1.024    c0,0.576-0.4587,1.0346-1.0347,1.0346c-0.5653,0-1.024-0.4587-1.024-1.0346C48.5067,23.3128,48.9654,22.8542,49.5307,22.8542z     M45.808,17.3182c0.5654,0,1.024,0.4587,1.024,1.0346c0,0.5654-0.4587,1.024-1.024,1.024c-0.5653,0-1.024-0.4587-1.024-1.024    C44.7841,17.7769,45.2427,17.3182,45.808,17.3182z M45.808,27.9741c0.5654,0,1.024,0.4587,1.024,1.0347    c0,0.5653-0.4587,1.024-1.024,1.024c-0.5653,0-1.024-0.4587-1.024-1.024C44.7841,28.4328,45.2427,27.9741,45.808,27.9741z     M42.3734,22.8542c0.5653,0,1.0346,0.4587,1.0346,1.024c0,0.576-0.4693,1.0346-1.0346,1.0346c-0.5654,0-1.024-0.4587-1.024-1.0346    C41.3494,23.3128,41.808,22.8542,42.3734,22.8542z M38.6508,17.3182c0.5653,0,1.024,0.4587,1.024,1.0346    c0,0.5654-0.4587,1.024-1.024,1.024c-0.5654,0-1.024-0.4587-1.024-1.024C37.6268,17.7769,38.0854,17.3182,38.6508,17.3182z     M38.6508,27.9741c0.5653,0,1.024,0.4587,1.024,1.0347c0,0.5653-0.4587,1.024-1.024,1.024c-0.5654,0-1.024-0.4587-1.024-1.024    C37.6268,28.4328,38.0854,27.9741,38.6508,27.9741z M35.2161,22.8542c0.5654,0,1.024,0.4587,1.024,1.024    c0,0.576-0.4587,1.0346-1.024,1.0346c-0.5653,0-1.024-0.4587-1.024-1.0346C34.1921,23.3128,34.6508,22.8542,35.2161,22.8542z     M31.4934,17.3182c0.5653,0,1.024,0.4587,1.024,1.0346c0,0.5654-0.4587,1.024-1.024,1.024c-0.5654,0-1.0347-0.4587-1.0347-1.024    C30.4588,17.7769,30.9281,17.3182,31.4934,17.3182z M31.4934,27.9741c0.5653,0,1.024,0.4587,1.024,1.0347    c0,0.5653-0.4587,1.024-1.024,1.024c-0.5654,0-1.0347-0.4587-1.0347-1.024C30.4588,28.4328,30.9281,27.9741,31.4934,27.9741z     M28.0588,22.8542c0.5654,0,1.024,0.4587,1.024,1.024c0,0.576-0.4587,1.0346-1.024,1.0346c-0.5653,0-1.024-0.4587-1.024-1.0346    C27.0348,23.3128,27.4935,22.8542,28.0588,22.8542z M24.3361,17.3182c0.5654,0,1.024,0.4587,1.024,1.0346    c0,0.5654-0.4587,1.024-1.024,1.024c-0.576,0-1.0346-0.4587-1.0346-1.024C23.3015,17.7769,23.7602,17.3182,24.3361,17.3182z     M24.3361,27.9741c0.5654,0,1.024,0.4587,1.024,1.0347c0,0.5653-0.4587,1.024-1.024,1.024c-0.576,0-1.0346-0.4587-1.0346-1.024    C23.3015,28.4328,23.7602,27.9741,24.3361,27.9741z M20.9015,22.8542c0.5653,0,1.024,0.4587,1.024,1.024    c0,0.576-0.4587,1.0346-1.024,1.0346c-0.5654,0-1.024-0.4587-1.024-1.0346C19.8775,23.3128,20.3361,22.8542,20.9015,22.8542z     M17.1789,17.3182c0.5653,0,1.024,0.4587,1.024,1.0346c0,0.5654-0.4587,1.024-1.024,1.024c-0.576,0-1.0347-0.4587-1.0347-1.024    C16.1442,17.7769,16.6028,17.3182,17.1789,17.3182z M17.1789,27.9741c0.5653,0,1.024,0.4587,1.024,1.0347    c0,0.5653-0.4587,1.024-1.024,1.024c-0.576,0-1.0347-0.4587-1.0347-1.024C16.1442,28.4328,16.6028,27.9741,17.1789,27.9741z"
         id="path208" /><path
         d="M13.4473,36.115c-1.2979,0-2.3542,1.0562-2.3542,2.3542v3.1406h47.8925v-3.1406c0-1.2979-1.0562-2.3542-2.3542-2.3542    H13.4473z"
         id="path210" /></g></g></svg>
