<?xml version="1.0" encoding="UTF-8" standalone="no"?>
<svg
   xmlns:dc="http://purl.org/dc/elements/1.1/"
   xmlns:cc="http://creativecommons.org/ns#"
   xmlns:rdf="http://www.w3.org/1999/02/22-rdf-syntax-ns#"
   xmlns:svg="http://www.w3.org/2000/svg"
   xmlns="http://www.w3.org/2000/svg"
   xmlns:sodipodi="http://sodipodi.sourceforge.net/DTD/sodipodi-0.dtd"
   xmlns:inkscape="http://www.inkscape.org/namespaces/inkscape"
   height="70.290909"
   width="84.668808"
   fill="#000000"
   version="1.1"
   x="0px"
   y="0px"
   viewBox="0 0 84.668808 70.290909"
   enable-background="new 0 0 100 100"
   xml:space="preserve"
   id="svg10"
   sodipodi:docname="noun_lamp_23343.svg"
   inkscape:version="1.0.1 (3bc2e813f5, 2020-09-07)"><metadata
     id="metadata16"><rdf:RDF><cc:Work
         rdf:about=""><dc:format>image/svg+xml</dc:format><dc:type
           rdf:resource="http://purl.org/dc/dcmitype/StillImage" /></cc:Work></rdf:RDF></metadata><defs
     id="defs14" /><sodipodi:namedview
     pagecolor="#ffffff"
     bordercolor="#666666"
     borderopacity="1"
     objecttolerance="10"
     gridtolerance="10"
     guidetolerance="10"
     inkscape:pageopacity="0"
     inkscape:pageshadow="2"
     inkscape:window-width="1920"
     inkscape:window-height="1001"
     id="namedview12"
     showgrid="false"
     inkscape:zoom="8.3"
     inkscape:cx="42.717"
     inkscape:cy="36.865905"
     inkscape:window-x="-9"
     inkscape:window-y="-9"
     inkscape:window-maximized="1"
     inkscape:current-layer="svg10" /><path
     d="M 53.313317,24.569775 C 52.96182,21.597704 50.739577,19.718201 48.195129,19.718201 H 44.637198 V 0 h -4.881904 v 19.718201 h -3.505207 c -2.546401,0 -4.158405,1.879503 -4.511855,4.851574 L 2.1206989,49.462212 C 0.8406638,50.362974 0,51.848114 0,53.574353 c 0,2.664645 2.0045096,5.087295 4.533336,5.24773 0.221638,0.05109 0.461828,0.332521 0.725451,0.332521 H 22.05937 c 3.844987,6.273973 11.430489,11.136302 20.161285,11.136302 8.731773,0 16.316299,-4.862329 20.160309,-11.136302 h 16.805465 c 3.359727,0 5.482378,-5.563222 5.482378,-8.515574 V 49.679112 Z M 42.219679,66.023707 c -5.972521,0 -11.264505,-4.180259 -14.584199,-6.869104 h 29.169374 c -3.318718,2.688846 -8.611678,6.869104 -14.585175,6.869104 z"
     id="path2"
     style="stroke-width:0.935474" /></svg>
