<?xml version="1.0" encoding="UTF-8" standalone="no"?>
<svg
   xmlns:dc="http://purl.org/dc/elements/1.1/"
   xmlns:cc="http://creativecommons.org/ns#"
   xmlns:rdf="http://www.w3.org/1999/02/22-rdf-syntax-ns#"
   xmlns:svg="http://www.w3.org/2000/svg"
   xmlns="http://www.w3.org/2000/svg"
   xmlns:sodipodi="http://sodipodi.sourceforge.net/DTD/sodipodi-0.dtd"
   xmlns:inkscape="http://www.inkscape.org/namespaces/inkscape"
   version="1.1"
   x="0px"
   y="0px"
   viewBox="0 0 100 125"
   enable-background="new 0 0 100 100"
   xml:space="preserve"
   id="svg8"
   sodipodi:docname="noun_beer mug_1028502.svg"
   inkscape:version="1.0.1 (3bc2e813f5, 2020-09-07)"><metadata
     id="metadata14"><rdf:RDF><cc:Work
         rdf:about=""><dc:format>image/svg+xml</dc:format><dc:type
           rdf:resource="http://purl.org/dc/dcmitype/StillImage" /></cc:Work></rdf:RDF></metadata><defs
     id="defs12" /><sodipodi:namedview
     pagecolor="#ffffff"
     bordercolor="#666666"
     borderopacity="1"
     objecttolerance="10"
     gridtolerance="10"
     guidetolerance="10"
     inkscape:pageopacity="0"
     inkscape:pageshadow="2"
     inkscape:window-width="1920"
     inkscape:window-height="1001"
     id="namedview10"
     showgrid="false"
     inkscape:zoom="6.64"
     inkscape:cx="50"
     inkscape:cy="62.5"
     inkscape:window-x="-9"
     inkscape:window-y="-9"
     inkscape:window-maximized="1"
     inkscape:current-layer="svg8" /><path
     d="M82.455,58.456l-2.884-20.509C79.1,34.544,76.14,32,72.843,32H66.72C65.989,32,65,31.148,65,30.418v-6.265  c1-1.444,2.346-6.822-1.766-10.757c-2.796-2.674-6.445-2.085-8.046-1.655c-1.192-1.827-4.876-6.613-11.503-6.555  c-3.748,0.016-7.086,1.56-9.422,4.356c-1.232,1.475-2.062,3.218-2.478,5.029c-1.501-0.83-4.433-1.878-7.794-0.007  c-2.987,1.662-4.392,5.122-3.248,8.226C21.083,23.71,22,24.309,22,24.705v45.209c0,4.258-0.527,8.709-1.613,12.823l-2.243,7.29  C17.375,92.545,19.293,95,21.927,95h43.582c2.624,0,4.508-2.445,3.739-4.964l-2.249-7.346c-0.548-2.067-0.932-4.197-1.202-6.369  c-0.048-0.471,0.25-0.902,0.711-1.017l7.373-1.849l0.115-0.036C80.225,71.016,83.695,64.839,82.455,58.456z M24.929,16.243  c3.26-1.814,5.996-0.017,6.57,0.409c-0.033,0.781,0.009,1.562,0.144,2.328c0.092,0.522,0.589,0.846,1.113,0.757  c0.523-0.092,0.872-0.636,0.779-1.159c-0.477-2.705,0.351-5.619,2.216-7.851C37.717,8.374,40.546,7,43.717,7  c0.018,0,0.033,0,0.051,0c6.775,0,10.053,6.026,10.189,6.279c0.229,0.43,0.744,0.738,1.2,0.56c0.041-0.015,4.157-1.606,6.847,0.968  c3.907,3.737,1.386,8.821,1.357,8.869C63.306,23.767,63.221,24,63.125,24H47.418c0.087,0-0.202-0.924-0.692-1.049  c-0.5-0.144-1.038,0.167-1.173,0.686c0,0.01-0.048,0.161-0.135,0.411c-0.5,1.384-2.509,5.944-7.478,6.568  c-0.433,0.048-0.846,0.079-1.24,0.079c-5.825,0-7.967-5.179-8.419-6.448c-0.027-0.068-0.244-0.661-0.321-0.804  c-0.253-0.467-0.839-0.64-1.303-0.388c-0.422,0.228-1.853,0.79-2.872,0.408c-0.527-0.199-0.909-0.637-1.168-1.34  C21.79,19.879,22.741,17.461,24.929,16.243z M59,61.984c-0.558,0-1-0.452-1-1v-24.54c0-0.558,0.442-1,1-1s1,0.442,1,1v24.54  C60,61.532,59.558,61.984,59,61.984z M60,66.002v7.045c0,0.558-0.442,1.009-1,1.009s-1-0.452-1-1.009v-7.045  c0-0.558,0.442-1.009,1-1.009S60,65.445,60,66.002z M54,47.594v30.48c0,0.557-0.442,1.009-1,1.009s-1-0.452-1-1.009v-30.48  c0-0.558,0.442-1,1-1S54,47.037,54,47.594z M61.231,84.678c-5.633,1.711-11.535,2.576-17.542,2.576s-11.909-0.865-17.542-2.566  c-0.529-0.163-0.827-0.73-0.673-1.259c0.163-0.529,0.731-0.836,1.259-0.673c5.44,1.653,11.15,2.49,16.956,2.49  c5.806,0,11.515-0.836,16.956-2.49c0.538-0.163,1.096,0.144,1.259,0.673C62.067,83.957,61.76,84.515,61.231,84.678z M72.285,68.136  l-0.019-0.01l-5.916,1.336C65.764,69.597,65,69.155,65,68.549V38.838C65,38.107,65.989,38,66.72,38h6.123  c1.144,0,1.221,0.246,1.24,0.419l2.922,21.053C77.754,63.135,75.774,66.665,72.285,68.136z"
     id="path2" /></svg>
